.
 
http://www.scenetime.com    -   SceneTime [ We been having it ] !!!


How come you press harder on a remote control when you know the battery is dead? so you better seed to get speed ;)

        Seed back for speed


...................................NFO:.................................................   :::'###::::'##::: ##::::'###::::'########:::'######::'##::::'##:'##:::'##:
   ::'## ##::: ###:: ##:::'## ##::: ##.... ##:'##... ##: ##:::: ##:. ##:'##::
   :'##:. ##:: ####: ##::'##:. ##:: ##:::: ##: ##:::..:: ##:::: ##::. ####:::
   '##:::. ##: ## ## ##:'##:::. ##: ########:: ##::::::: #########:::. ##::::
    #########: ##. ####: #########: ##.. ##::: ##::::::: ##.... ##:::: ##::::
    ##.... ##: ##:. ###: ##.... ##: ##::. ##:: ##::: ##: ##:::: ##:::: ##::::
    ##:::: ##: ##::. ##: ##:::: ##: ##:::. ##:. ######:: ##:::: ##:::: ##::::
   ..:::::..::..::::..::..:::::..::..:::::..:::......:::..:::::..:::::..:::::

 
 
                                                                             
  Info ...                                                                   
  Title    : Knights of Bloodsteel (2009) BRRip Xvid AC3-Anarchy             
  Genre    : Adventure | Drama | Fantasy                                     
  Language : English                                                         
  Subs     : None                                                            
  Size     : 1.87 GB                                                         
  Source   : x264 BluRay DNL                                                 
  Ripper   : fasamoo                                                         
 




 
                                                                             
  Plot ...                                                                   
  In the faraway land of Mirabilis, the warlord Dragon-Eye has unleashed his 
  terrifying  forces  to  hunt  down the  source  of  all  power, a          
  legendary Crucible. With  freedom  hanging in  the  balance, a motley band 
  of knights embarks on a dangerous mission to fight against the dreaded     
  assassins, dragons and  soldiers  of  Dragon-Eye and rescue their world    
  from the clutches of evil once and for all.                                
                                                                             
 
 
 
                                                                             
  Video/Audio ...                                                            
  Part 1                                                                                                    
                                                                                                            
  Video                                                                                                     
  ID                               : 0                                                                      
  Format                           : MPEG-4 Visual                                                          
  Format profile                   : Advanced Simple@L5                                                     
  Format settings, BVOP            : 2                                                                      
  Format settings, QPel            : No                                                                     
  Format settings, GMC             : No warppoints                                                          
  Format settings, Matrix          : Default (H.263)                                                        
  Muxing mode                      : Packed bitstream                                                       
  Codec ID                         : XVID                                                                   
  Codec ID/Hint                    : XviD                                                                   
  Duration                         : 1h 30mn                                                                
  Bit rate                         : 1 165 Kbps                                                             
  Width                            : 720 pixels                                                             
  Height                           : 416 pixels                                                             
  Display aspect ratio             : 16:9                                                                   
  Frame rate                       : 25.000 fps                                                             
  Color space                      : YUV                                                                    
  Chroma subsampling               : 4:2:0                                                                  
  Bit depth                        : 8 bits                                                                 
  Scan type                        : Progressive                                                            
  Compression mode                 : Lossy                                                                  
  Bits/(Pixel*Frame)               : 0.156                                                                  
  Stream size                      : 751 MiB (72%)                                                          
  Writing library                  : XviD 1.1.0 (UTC 2005-11-22)                                            
                                                                                                            
  Audio                                                                                                     
  ID                               : 1                                                                      
  Format                           : AC-3                                                                   
  Format/Info                      : Audio Coding 3                                                         
  Mode extension                   : CM (complete main)                                                     
  Codec ID                         : 2000                                                                   
  Duration                         : 1h 30mn                                                                
  Bit rate mode                    : Constant                                                               
  Bit rate                         : 448 Kbps                                                               
  Channel(s)                       : 6 channels                                                             
  Channel positions                : Front: L C R, Side: L R, LFE                                           
  Sampling rate                    : 48.0 KHz                                                               
  Bit depth                        : 16 bits                                                                
  Compression mode                 : Lossy                                                                  
  Stream size                      : 289 MiB (28%)                                                          
  Alignment                        : Split accross interleaves                                              
  Interleave, duration             : 40 ms (1.00 video frame)                                               
  Interleave, preload duration     : 500 ms                                                                 
                                                                                                            
  Part 2                                                                                                    
                                                                                                            
  Video                                                                                                     
  ID                               : 0                                                                      
  Format                           : MPEG-4 Visual                                                          
  Format profile                   : Advanced Simple@L5                                                     
  Format settings, BVOP            : 2                                                                      
  Format settings, QPel            : No                                                                     
  Format settings, GMC             : No warppoints                                                          
  Format settings, Matrix          : Default (H.263)                                                        
  Muxing mode                      : Packed bitstream                                                       
  Codec ID                         : XVID                                                                   
  Codec ID/Hint                    : XviD                                                                   
  Duration                         : 1h 30mn                                                                
  Bit rate                         : 895 Kbps                                                               
  Width                            : 720 pixels                                                             
  Height                           : 416 pixels                                                             
  Display aspect ratio             : 16:9                                                                   
  Frame rate                       : 25.000 fps                                                             
  Color space                      : YUV                                                                    
  Chroma subsampling               : 4:2:0                                                                  
  Bit depth                        : 8 bits                                                                 
  Scan type                        : Progressive                                                            
  Compression mode                 : Lossy                                                                  
  Bits/(Pixel*Frame)               : 0.120                                                                  
  Stream size                      : 577 MiB (66%)                                                          
  Writing library                  : XviD 1.1.0 (UTC 2005-11-22)                                            
                                                                                                            
  Audio                                                                                                     
  ID                               : 1                                                                      
  Format                           : AC-3                                                                   
  Format/Info                      : Audio Coding 3                                                         
  Mode extension                   : CM (complete main)                                                     
  Codec ID                         : 2000                                                                   
  Duration                         : 1h 30mn                                                                
  Bit rate mode                    : Constant                                                               
  Bit rate                         : 448 Kbps                                                               
  Channel(s)                       : 6 channels                                                             
  Channel positions                : Front: L C R, Side: L R, LFE                                           
  Sampling rate                    : 48.0 KHz                                                               
  Bit depth                        : 16 bits                                                                
  Compression mode                 : Lossy                                                                  
  Stream size                      : 289 MiB (33%)                                                          
  Alignment                        : Split accross interleaves                                              
  Interleave, duration             : 40 ms (1.00 video frame)                                               
  Interleave, preload duration     : 500 ms                                                                 
                                                                                                            
                                                                             
 
              

                             Greets to all P2P groups